<svg width="283" height="110" viewBox="0 0 283 110" fill="none" xmlns="http://www.w3.org/2000/svg">
<path d="M121.908 37.779L131.673 37.7164C136.068 37.7164 138.265 39.8026 138.265 43.9748V60.434C132.917 62.1446 127.298 63 121.41 63C118.425 63 115.771 62.4993 113.449 61.498C111.168 60.4967 109.24 59.0573 107.665 57.1798C106.131 55.3022 104.97 53.0076 104.182 50.2955C103.394 47.5419 103 44.4336 103 40.9707C103 37.1741 103.539 33.8779 104.617 31.0826C105.737 28.2455 107.209 25.8882 109.033 24.0107C110.899 22.1332 113.034 20.7355 115.439 19.8176C117.844 18.858 120.353 18.3782 122.965 18.3782C128.356 18.3782 133.414 19.8802 138.141 22.8842C138.1 23.5517 137.934 24.2401 137.644 24.9494C137.395 25.617 137.063 26.2845 136.648 26.9521C136.275 27.5779 135.819 28.162 135.28 28.7044C134.782 29.2051 134.264 29.6432 133.725 30.0187C130.284 27.7657 126.801 26.6392 123.276 26.6392C116.517 26.6392 113.138 31.3955 113.138 40.9081C113.138 50.3791 116.6 55.1146 123.525 55.1146C124.479 55.1146 125.391 55.0729 126.262 54.9894C127.174 54.9058 128.065 54.7807 128.936 54.6138V50.4209C128.936 49.4613 128.936 48.6268 128.936 47.9175C128.977 47.2082 129.019 46.6033 129.06 46.1025H125.951C124.168 46.1025 122.924 45.7688 122.219 45.1012C121.555 44.3919 121.224 43.3072 121.224 41.8469C121.224 40.5953 121.452 39.2392 121.908 37.779Z" fill="#333333"/>
<path d="M157.565 38.0293V62.0612C156.86 62.1866 156.093 62.27 155.264 62.3117C154.434 62.3951 153.584 62.4368 152.714 62.4368C151.843 62.4368 150.972 62.3951 150.101 62.3117C149.272 62.27 148.505 62.1866 147.8 62.0612V41.3462C147.8 38.9264 146.826 37.7164 144.877 37.7164H143.944C143.695 36.9237 143.571 35.818 143.571 34.3995C143.571 33.0227 143.695 31.8545 143.944 30.8949C145.022 30.8114 146.017 30.7488 146.929 30.7071C147.842 30.6237 148.671 30.5819 149.417 30.5819H150.786C152.9 30.5819 154.559 31.2495 155.761 32.5846C156.964 33.9197 157.565 35.7346 157.565 38.0293ZM146.681 18.253C147.883 17.5855 149.438 17.2517 151.345 17.2517C153.294 17.2517 154.807 17.5855 155.886 18.253C156.383 19.3795 156.632 20.5895 156.632 21.8829C156.632 23.1763 156.383 24.3862 155.886 25.5127C154.683 26.1385 153.107 26.4515 151.159 26.4515C149.21 26.4515 147.717 26.1385 146.681 25.5127C146.183 24.3862 145.934 23.1763 145.934 21.8829C145.934 20.5895 146.183 19.3795 146.681 18.253Z" fill="#333333"/>
<path d="M183.934 30.7697C184.183 31.9379 184.308 33.1061 184.308 34.2743C184.308 35.4426 184.183 36.59 183.934 37.7164L176.533 37.5913V51.9854C176.533 53.9463 177.445 54.9268 179.27 54.9268H182.753C183.292 56.4289 183.561 57.8056 183.561 59.0573C183.561 60.3089 183.478 61.206 183.312 61.7485C180.244 62.1656 177.424 62.3742 174.854 62.3742C169.629 62.3742 167.017 59.4745 167.017 53.675V37.6539L162.166 37.7164C161.875 36.6734 161.73 35.5469 161.73 34.3369C161.73 33.0853 161.875 31.8962 162.166 30.7697L167.017 30.8948V27.265C167.017 25.1372 167.411 23.6352 168.199 22.759C169.028 21.8411 170.396 21.3822 172.304 21.3822H176.098L176.533 21.8203V30.8948L183.934 30.7697Z" fill="#333333"/>
<path d="M190.589 52.5486C192.621 53.8003 194.591 54.426 196.498 54.426C198.488 54.426 199.857 53.8003 200.603 52.5486C201.391 51.2553 201.785 49.2734 201.785 46.6033V19.3169C203.029 19.0666 204.667 18.9414 206.698 18.9414C208.73 18.9414 210.409 19.0666 211.736 19.3169V45.6644C211.736 48.3346 211.508 50.7338 211.052 52.8615C210.596 54.9475 209.808 56.7208 208.689 58.1811C207.569 59.6414 206.076 60.7679 204.211 61.5606C202.386 62.3116 200.085 62.687 197.307 62.687C193.45 62.687 190.071 61.7692 187.169 59.9334C187.625 57.0545 188.765 54.5931 190.589 52.5486Z" fill="#333333"/>
<path d="M243.127 33.5859C246.113 36.5899 247.605 40.8872 247.605 46.4779C247.605 48.9812 247.274 51.2552 246.61 53.2996C245.988 55.3439 245.055 57.0964 243.811 58.5565C242.609 59.9751 241.116 61.0808 239.333 61.8735C237.55 62.6245 235.498 63 233.176 63C230.854 63 228.801 62.6036 227.018 61.8109C225.277 61.0181 223.784 59.9125 222.54 58.494C221.338 57.0337 220.425 55.2814 219.803 53.2369C219.181 51.1926 218.87 48.9395 218.87 46.4779C218.87 43.9748 219.181 41.7217 219.803 39.7191C220.425 37.6746 221.338 35.9223 222.54 34.462C223.742 33.0017 225.235 31.8752 227.018 31.0825C228.801 30.2898 230.854 29.8934 233.176 29.8934C237.281 29.8934 240.598 31.1242 243.127 33.5859ZM233.238 37.2158C232.326 37.2158 231.579 37.4451 230.999 37.9041C230.46 38.3212 230.024 38.9054 229.693 39.6564C229.361 40.4074 229.133 41.2836 229.009 42.2849C228.884 43.2445 228.822 44.2875 228.822 45.4141C228.822 47.1664 228.863 48.6892 228.946 49.9827C229.071 51.2343 229.278 52.2983 229.568 53.1744C229.9 54.0089 230.335 54.6347 230.874 55.0519C231.455 55.4692 232.201 55.6777 233.114 55.6777C234.938 55.6777 236.14 54.885 236.721 53.2996C237.301 51.6724 237.592 49.3776 237.592 46.4154C237.592 43.4113 237.301 41.1375 236.721 39.5938C236.14 38.0083 234.979 37.2158 233.238 37.2158Z" fill="#333333"/>
<path d="M254.413 60.4967V16.4381L254.849 16H258.518C260.426 16 261.794 16.4381 262.623 17.3142C263.453 18.1904 263.867 19.7133 263.867 21.8828V32.3342C266.023 30.9157 268.428 30.2064 271.082 30.2064C274.731 30.2064 277.468 31.6875 279.292 34.6498C281.158 37.6122 282.091 41.5966 282.091 46.6033C282.091 48.9813 281.718 51.1509 280.971 53.1118C280.225 55.0729 279.188 56.7625 277.861 58.1811C276.535 59.5996 274.918 60.7052 273.01 61.498C271.103 62.249 269.009 62.6246 266.728 62.6246C262.001 62.6246 257.896 61.9153 254.413 60.4967ZM268.159 38.0293C266.542 38.0293 265.111 38.7176 263.867 40.0946V55.3649C264.282 55.4483 264.717 55.5109 265.173 55.5527C265.671 55.5944 266.189 55.6151 266.728 55.6151C270.336 55.6151 272.139 52.4651 272.139 46.1652C272.139 40.7829 270.813 38.071 268.159 38.0293Z" fill="#333333"/>
<path d="M11.464 106.208C9.768 106.208 8.36533 105.648 7.256 104.528C6.15733 103.408 5.608 102.032 5.608 100.4C5.608 98.768 6.15733 97.392 7.256 96.272C8.36533 95.152 9.768 94.592 11.464 94.592C12.488 94.592 13.4267 94.8373 14.28 95.328C15.144 95.8187 15.816 96.48 16.296 97.312L15 98.064C14.68 97.4453 14.2 96.9547 13.56 96.592C12.9307 96.2187 12.232 96.032 11.464 96.032C10.1733 96.032 9.11733 96.448 8.296 97.28C7.48533 98.112 7.08 99.152 7.08 100.4C7.08 101.637 7.48533 102.672 8.296 103.504C9.11733 104.336 10.1733 104.752 11.464 104.752C12.232 104.752 12.9307 104.571 13.56 104.208C14.2 103.835 14.68 103.344 15 102.736L16.296 103.472C15.8267 104.304 15.16 104.971 14.296 105.472C13.432 105.963 12.488 106.208 11.464 106.208ZM19.422 102.64C19.5607 103.355 19.886 103.909 20.398 104.304C20.9207 104.699 21.5607 104.896 22.318 104.896C23.374 104.896 24.142 104.507 24.622 103.728L25.806 104.4C25.0273 105.605 23.854 106.208 22.286 106.208C21.0167 106.208 19.982 105.813 19.182 105.024C18.3927 104.224 17.998 103.216 17.998 102C17.998 100.795 18.3873 99.792 19.166 98.992C19.9447 98.192 20.9527 97.792 22.19 97.792C23.3633 97.792 24.318 98.208 25.054 99.04C25.8007 99.8613 26.174 100.853 26.174 102.016C26.174 102.219 26.158 102.427 26.126 102.64H19.422ZM22.19 99.104C21.4433 99.104 20.8247 99.3173 20.334 99.744C19.8433 100.16 19.5393 100.72 19.422 101.424H24.766C24.6487 100.667 24.35 100.091 23.87 99.696C23.39 99.3013 22.83 99.104 22.19 99.104ZM32.8301 97.792C33.9501 97.792 34.9048 98.2027 35.6941 99.024C36.4835 99.8347 36.8781 100.827 36.8781 102C36.8781 103.173 36.4835 104.171 35.6941 104.992C34.9048 105.803 33.9501 106.208 32.8301 106.208C31.5075 106.208 30.4995 105.68 29.8061 104.624V109.2H28.4141V98H29.8061V99.376C30.4995 98.32 31.5075 97.792 32.8301 97.792ZM32.6541 104.864C33.4541 104.864 34.1261 104.592 34.6701 104.048C35.2141 103.493 35.4861 102.811 35.4861 102C35.4861 101.189 35.2141 100.512 34.6701 99.968C34.1261 99.4133 33.4541 99.136 32.6541 99.136C31.8435 99.136 31.1661 99.4133 30.6221 99.968C30.0781 100.512 29.8061 101.189 29.8061 102C29.8061 102.811 30.0781 103.493 30.6221 104.048C31.1661 104.592 31.8435 104.864 32.6541 104.864ZM44.5071 101.888C45.3285 102.229 45.7391 102.848 45.7391 103.744C45.7391 104.405 45.5151 104.949 45.0671 105.376C44.6298 105.792 44.0005 106 43.1791 106H39.1791V98H42.8591C43.6591 98 44.2778 98.2027 44.7151 98.608C45.1525 99.0027 45.3711 99.5253 45.3711 100.176C45.3711 100.944 45.0831 101.515 44.5071 101.888ZM42.7951 99.248H40.5391V101.344H42.7951C43.6058 101.344 44.0111 100.987 44.0111 100.272C44.0111 99.5893 43.6058 99.248 42.7951 99.248ZM43.0991 104.736C43.5045 104.736 43.8138 104.64 44.0271 104.448C44.2511 104.256 44.3631 103.984 44.3631 103.632C44.3631 103.301 44.2511 103.045 44.0271 102.864C43.8138 102.672 43.5045 102.576 43.0991 102.576H40.5391V104.736H43.0991ZM53.6896 98H54.8096V106H53.4336V100.384L49.0016 106H47.8816V98H49.2576V103.616L53.6896 98ZM61.3285 106.208C60.1232 106.208 59.1205 105.808 58.3205 105.008C57.5205 104.197 57.1205 103.195 57.1205 102C57.1205 100.805 57.5205 99.808 58.3205 99.008C59.1205 98.1973 60.1232 97.792 61.3285 97.792C62.1178 97.792 62.8272 97.984 63.4565 98.368C64.0858 98.7413 64.5552 99.248 64.8645 99.888L63.6965 100.56C63.4938 100.133 63.1792 99.792 62.7525 99.536C62.3365 99.28 61.8618 99.152 61.3285 99.152C60.5285 99.152 59.8565 99.424 59.3125 99.968C58.7792 100.512 58.5125 101.189 58.5125 102C58.5125 102.8 58.7792 103.472 59.3125 104.016C59.8565 104.56 60.5285 104.832 61.3285 104.832C61.8618 104.832 62.3418 104.709 62.7685 104.464C63.1952 104.208 63.5205 103.867 63.7445 103.44L64.9285 104.128C64.5872 104.757 64.0965 105.264 63.4565 105.648C62.8165 106.021 62.1072 106.208 61.3285 106.208ZM78.5265 98V106H77.1345V99.328H72.9905V106H71.5985V98H78.5265ZM88.0374 104.992C87.216 105.803 86.2187 106.208 85.0454 106.208C83.872 106.208 82.8747 105.803 82.0534 104.992C81.2427 104.181 80.8374 103.184 80.8374 102C80.8374 100.816 81.2427 99.8187 82.0534 99.008C82.8747 98.1973 83.872 97.792 85.0454 97.792C86.2187 97.792 87.216 98.1973 88.0374 99.008C88.8587 99.8187 89.2694 100.816 89.2694 102C89.2694 103.184 88.8587 104.181 88.0374 104.992ZM85.0454 104.848C85.8454 104.848 86.5174 104.576 87.0614 104.032C87.6054 103.488 87.8774 102.811 87.8774 102C87.8774 101.189 87.6054 100.512 87.0614 99.968C86.5174 99.424 85.8454 99.152 85.0454 99.152C84.256 99.152 83.5894 99.424 83.0454 99.968C82.5014 100.512 82.2294 101.189 82.2294 102C82.2294 102.811 82.5014 103.488 83.0454 104.032C83.5894 104.576 84.256 104.848 85.0454 104.848ZM98.1179 104.672H99.2219V108.144H97.8459V106H91.8459V108.144H90.4699V104.672H91.4459C91.9579 103.968 92.2139 102.981 92.2139 101.712V98H98.1179V104.672ZM93.0299 104.672H96.7419V99.296H93.5899V101.712C93.5899 102.907 93.4032 103.893 93.0299 104.672ZM104.682 106.208C103.498 106.208 102.522 105.819 101.754 105.04C100.986 104.261 100.602 103.259 100.602 102.032C100.602 100.667 100.799 99.616 101.194 98.88C101.599 98.144 102.42 97.4773 103.658 96.88C103.882 96.7733 104.186 96.6347 104.57 96.464C104.964 96.2933 105.252 96.1653 105.434 96.08C105.615 95.984 105.818 95.8613 106.042 95.712C106.266 95.552 106.431 95.3813 106.538 95.2C106.655 95.008 106.74 94.7893 106.794 94.544L107.914 95.184C107.882 95.3547 107.839 95.5147 107.786 95.664C107.732 95.8027 107.652 95.9413 107.546 96.08C107.45 96.208 107.364 96.32 107.29 96.416C107.215 96.512 107.087 96.6187 106.906 96.736C106.735 96.8427 106.607 96.9227 106.522 96.976C106.447 97.0293 106.292 97.1093 106.058 97.216C105.834 97.3227 105.679 97.3973 105.594 97.44C105.519 97.472 105.343 97.5467 105.066 97.664C104.788 97.7707 104.618 97.84 104.554 97.872C103.828 98.1813 103.295 98.496 102.954 98.816C102.623 99.136 102.383 99.5413 102.234 100.032C102.575 99.6053 103.002 99.2907 103.514 99.088C104.026 98.8853 104.538 98.784 105.05 98.784C106.052 98.784 106.9 99.1253 107.594 99.808C108.298 100.491 108.65 101.371 108.65 102.448C108.65 103.536 108.276 104.437 107.53 105.152C106.783 105.856 105.834 106.208 104.682 106.208ZM102.81 104.16C103.311 104.629 103.935 104.864 104.682 104.864C105.428 104.864 106.042 104.635 106.522 104.176C107.012 103.717 107.258 103.141 107.258 102.448C107.258 101.733 107.023 101.152 106.554 100.704C106.095 100.245 105.487 100.016 104.73 100.016C104.047 100.016 103.428 100.235 102.874 100.672C102.33 101.099 102.058 101.664 102.058 102.368C102.058 103.093 102.308 103.691 102.81 104.16ZM117.52 104.992C116.699 105.803 115.701 106.208 114.528 106.208C113.355 106.208 112.357 105.803 111.536 104.992C110.725 104.181 110.32 103.184 110.32 102C110.32 100.816 110.725 99.8187 111.536 99.008C112.357 98.1973 113.355 97.792 114.528 97.792C115.701 97.792 116.699 98.1973 117.52 99.008C118.341 99.8187 118.752 100.816 118.752 102C118.752 103.184 118.341 104.181 117.52 104.992ZM114.528 104.848C115.328 104.848 116 104.576 116.544 104.032C117.088 103.488 117.36 102.811 117.36 102C117.36 101.189 117.088 100.512 116.544 99.968C116 99.424 115.328 99.152 114.528 99.152C113.739 99.152 113.072 99.424 112.528 99.968C111.984 100.512 111.712 101.189 111.712 102C111.712 102.811 111.984 103.488 112.528 104.032C113.072 104.576 113.739 104.848 114.528 104.848ZM125.449 97.792C126.569 97.792 127.524 98.2027 128.313 99.024C129.102 99.8347 129.497 100.827 129.497 102C129.497 103.173 129.102 104.171 128.313 104.992C127.524 105.803 126.569 106.208 125.449 106.208C124.126 106.208 123.118 105.68 122.425 104.624V109.2H121.033V98H122.425V99.376C123.118 98.32 124.126 97.792 125.449 97.792ZM125.273 104.864C126.073 104.864 126.745 104.592 127.289 104.048C127.833 103.493 128.105 102.811 128.105 102C128.105 101.189 127.833 100.512 127.289 99.968C126.745 99.4133 126.073 99.136 125.273 99.136C124.462 99.136 123.785 99.4133 123.241 99.968C122.697 100.512 122.425 101.189 122.425 102C122.425 102.811 122.697 103.493 123.241 104.048C123.785 104.592 124.462 104.864 125.273 104.864ZM138.422 98H139.814V106H138.422V104.624C137.729 105.68 136.721 106.208 135.398 106.208C134.278 106.208 133.323 105.803 132.534 104.992C131.745 104.171 131.35 103.173 131.35 102C131.35 100.827 131.745 99.8347 132.534 99.024C133.323 98.2027 134.278 97.792 135.398 97.792C136.721 97.792 137.729 98.32 138.422 99.376V98ZM135.574 104.864C136.385 104.864 137.062 104.592 137.606 104.048C138.15 103.493 138.422 102.811 138.422 102C138.422 101.189 138.15 100.512 137.606 99.968C137.062 99.4133 136.385 99.136 135.574 99.136C134.774 99.136 134.102 99.4133 133.558 99.968C133.014 100.512 132.742 101.189 132.742 102C132.742 102.811 133.014 103.493 133.558 104.048C134.102 104.592 134.774 104.864 135.574 104.864ZM147.347 94.8H148.835V106H147.347V94.8ZM159.046 94.8V96.208H155.734V106H154.262V96.208H150.966V94.8H159.046ZM169.414 106.208C168.209 106.208 167.206 105.808 166.406 105.008C165.606 104.197 165.206 103.195 165.206 102C165.206 100.805 165.606 99.808 166.406 99.008C167.206 98.1973 168.209 97.792 169.414 97.792C170.203 97.792 170.913 97.984 171.542 98.368C172.171 98.7413 172.641 99.248 172.95 99.888L171.782 100.56C171.579 100.133 171.265 99.792 170.838 99.536C170.422 99.28 169.947 99.152 169.414 99.152C168.614 99.152 167.942 99.424 167.398 99.968C166.865 100.512 166.598 101.189 166.598 102C166.598 102.8 166.865 103.472 167.398 104.016C167.942 104.56 168.614 104.832 169.414 104.832C169.947 104.832 170.427 104.709 170.854 104.464C171.281 104.208 171.606 103.867 171.83 103.44L173.014 104.128C172.673 104.757 172.182 105.264 171.542 105.648C170.902 106.021 170.193 106.208 169.414 106.208ZM181.972 98V106H180.58V99.328H176.436V106H175.044V98H181.972ZM185.707 102.64C185.846 103.355 186.171 103.909 186.683 104.304C187.206 104.699 187.846 104.896 188.603 104.896C189.659 104.896 190.427 104.507 190.907 103.728L192.091 104.4C191.312 105.605 190.139 106.208 188.571 106.208C187.302 106.208 186.267 105.813 185.467 105.024C184.678 104.224 184.283 103.216 184.283 102C184.283 100.795 184.672 99.792 185.451 98.992C186.23 98.192 187.238 97.792 188.475 97.792C189.648 97.792 190.603 98.208 191.339 99.04C192.086 99.8613 192.459 100.853 192.459 102.016C192.459 102.219 192.443 102.427 192.411 102.64H185.707ZM188.475 99.104C187.728 99.104 187.11 99.3173 186.619 99.744C186.128 100.16 185.824 100.72 185.707 101.424H191.051C190.934 100.667 190.635 100.091 190.155 99.696C189.675 99.3013 189.115 99.104 188.475 99.104ZM201.419 104.672H202.731V108.144H201.355V106H194.699V98H196.091V104.672H200.027V98H201.419V104.672ZM210.663 98H211.783V106H210.407V100.384L205.975 106H204.855V98H206.231V103.616L210.663 98ZM221.166 98H222.558V106H221.166V104.624C220.472 105.68 219.464 106.208 218.142 106.208C217.022 106.208 216.067 105.803 215.278 104.992C214.488 104.171 214.094 103.173 214.094 102C214.094 100.827 214.488 99.8347 215.278 99.024C216.067 98.2027 217.022 97.792 218.142 97.792C219.464 97.792 220.472 98.32 221.166 99.376V98ZM218.318 104.864C219.128 104.864 219.806 104.592 220.35 104.048C220.894 103.493 221.166 102.811 221.166 102C221.166 101.189 220.894 100.512 220.35 99.968C219.806 99.4133 219.128 99.136 218.318 99.136C217.518 99.136 216.846 99.4133 216.302 99.968C215.758 100.512 215.486 101.189 215.486 102C215.486 102.811 215.758 103.493 216.302 104.048C216.846 104.592 217.518 104.864 218.318 104.864ZM231.979 98V106H230.587V99.344H227.435V102.608C227.435 103.92 227.168 104.837 226.635 105.36C226.112 105.872 225.371 106.085 224.411 106V104.688C224.955 104.763 225.36 104.645 225.627 104.336C225.904 104.016 226.043 103.429 226.043 102.576V98H231.979ZM240.536 98H241.656V106H240.28V100.384L235.848 106H234.728V98H236.104V103.616L240.536 98ZM248.175 106.208C246.969 106.208 245.967 105.808 245.167 105.008C244.367 104.197 243.967 103.195 243.967 102C243.967 100.805 244.367 99.808 245.167 99.008C245.967 98.1973 246.969 97.792 248.175 97.792C248.964 97.792 249.673 97.984 250.303 98.368C250.932 98.7413 251.401 99.248 251.711 99.888L250.543 100.56C250.34 100.133 250.025 99.792 249.599 99.536C249.183 99.28 248.708 99.152 248.175 99.152C247.375 99.152 246.703 99.424 246.159 99.968C245.625 100.512 245.359 101.189 245.359 102C245.359 102.8 245.625 103.472 246.159 104.016C246.703 104.56 247.375 104.832 248.175 104.832C248.708 104.832 249.188 104.709 249.615 104.464C250.041 104.208 250.367 103.867 250.591 103.44L251.775 104.128C251.433 104.757 250.943 105.264 250.303 105.648C249.663 106.021 248.953 106.208 248.175 106.208ZM259.616 98V99.344H256.896V106H255.504V99.344H252.768V98H259.616ZM267.915 104.992C267.094 105.803 266.097 106.208 264.923 106.208C263.75 106.208 262.753 105.803 261.931 104.992C261.121 104.181 260.715 103.184 260.715 102C260.715 100.816 261.121 99.8187 261.931 99.008C262.753 98.1973 263.75 97.792 264.923 97.792C266.097 97.792 267.094 98.1973 267.915 99.008C268.737 99.8187 269.147 100.816 269.147 102C269.147 103.184 268.737 104.181 267.915 104.992ZM264.923 104.848C265.723 104.848 266.395 104.576 266.939 104.032C267.483 103.488 267.755 102.811 267.755 102C267.755 101.189 267.483 100.512 266.939 99.968C266.395 99.424 265.723 99.152 264.923 99.152C264.134 99.152 263.467 99.424 262.923 99.968C262.379 100.512 262.107 101.189 262.107 102C262.107 102.811 262.379 103.488 262.923 104.032C263.467 104.576 264.134 104.848 264.923 104.848ZM276.756 101.888C277.578 102.229 277.988 102.848 277.988 103.744C277.988 104.405 277.764 104.949 277.316 105.376C276.879 105.792 276.25 106 275.428 106H271.428V98H275.108C275.908 98 276.527 98.2027 276.964 98.608C277.402 99.0027 277.62 99.5253 277.62 100.176C277.62 100.944 277.332 101.515 276.756 101.888ZM275.044 99.248H272.788V101.344H275.044C275.855 101.344 276.26 100.987 276.26 100.272C276.26 99.5893 275.855 99.248 275.044 99.248ZM275.348 104.736C275.754 104.736 276.063 104.64 276.276 104.448C276.5 104.256 276.612 103.984 276.612 103.632C276.612 103.301 276.5 103.045 276.276 102.864C276.063 102.672 275.754 102.576 275.348 102.576H272.788V104.736H275.348Z" fill="#333333"/>
<path d="M40 80C17.9545 80 0 62.0455 0 40C0 17.9545 17.9545 0 40 0H80V40C80 62.0455 62.0455 80 40 80ZM40 14.5455C25.9545 14.5455 14.5455 25.9545 14.5455 40C14.5455 54.0455 25.9545 65.4545 40 65.4545C54.0455 65.4545 65.4545 54.0455 65.4545 40V14.5455H40Z" fill="#60CEAE"/>
<path d="M40 25.4546H54.5454V40C54.5454 48.0455 48.0454 54.5455 40 54.5455C31.9545 54.5455 25.4545 48.0455 25.4545 40C25.4545 31.9546 31.9545 25.4546 40 25.4546Z" fill="#60CEAE"/>
<path d="M65.4545 25.5H67.2727C74.2727 25.5 79.9545 31.5454 80 39V14.5454H65.4545V25.5Z" fill="url(#paint0_linear_2160_2)"/>
<defs>
<linearGradient id="paint0_linear_2160_2" x1="72.7273" y1="6.81814" x2="72.7273" y2="39" gradientUnits="userSpaceOnUse">
<stop offset="0.208333" stop-color="#1E9F80"/>
<stop offset="0.994792" stop-color="#60CEAE"/>
</linearGradient>
</defs>
</svg>
