<svg width="40" height="40" viewBox="0 0 40 40" fill="none" xmlns="http://www.w3.org/2000/svg"><circle cx="20" cy="20" r="19.5" stroke="black"/><path d="M31.78 14.66C31.5 13.62 30.68 12.8 29.64 12.52C27.74 12 20.14 12 20.14 12C20.14 12 12.54 12 10.64 12.5C9.62 12.78 8.78 13.62 8.5 14.66C8 16.56 8 20.5 8 20.5C8 20.5 8 24.46 8.5 26.34C8.78 27.38 9.6 28.2 10.64 28.48C12.56 29 20.14 29 20.14 29C20.14 29 27.74 29 29.64 28.5C30.68 28.22 31.5 27.4 31.78 26.36C32.28 24.46 32.28 20.52 32.28 20.52C32.28 20.52 32.3 16.56 31.78 14.66Z" fill="#333333"/><path d="M24.04 20.5L17.72 16.86V24.14L24.04 20.5Z" fill="white"/></svg>