<svg width="40" height="40" viewBox="0 0 40 40" fill="none" xmlns="http://www.w3.org/2000/svg"><circle cx="20" cy="20" r="20" fill="#333333"/><path d="M26.5958 20.69C26.2725 20.2817 26.365 20.1 26.5958 19.735C26.6 19.7308 29.2692 16.0425 29.5442 14.7917L29.5458 14.7908C29.6825 14.335 29.5458 14 28.885 14H26.6983C26.1417 14 25.885 14.2875 25.7475 14.6092C25.7475 14.6092 24.6342 17.2742 23.0592 19.0017C22.5508 19.5008 22.3158 19.6608 22.0383 19.6608C21.9017 19.6608 21.6892 19.5008 21.6892 19.045V14.7908C21.6892 14.2442 21.5333 14 21.0725 14H17.6342C17.285 14 17.0775 14.255 17.0775 14.4925C17.0775 15.0108 17.865 15.13 17.9467 16.5883V19.7525C17.9467 20.4458 17.8208 20.5733 17.5417 20.5733C16.7983 20.5733 14.9942 17.8975 13.925 14.835C13.7092 14.2408 13.4983 14.0008 12.9375 14.0008H10.75C10.1258 14.0008 10 14.2883 10 14.61C10 15.1783 10.7433 18.0042 13.4567 21.7375C15.265 24.2858 17.8117 25.6667 20.1283 25.6667C21.5208 25.6667 21.6908 25.36 21.6908 24.8325C21.6908 22.3975 21.565 22.1675 22.2625 22.1675C22.5858 22.1675 23.1425 22.3275 24.4425 23.5567C25.9283 25.0142 26.1725 25.6667 27.0042 25.6667H29.1908C29.8142 25.6667 30.13 25.36 29.9483 24.755C29.5325 23.4825 26.7225 20.865 26.5958 20.69Z" fill="white"/></svg>